<?xml version="1.0" encoding="UTF-8"?>
<svg width="300px" height="300px" viewBox="0 0 300 300" version="1.1" xmlns="http://www.w3.org/2000/svg" xmlns:xlink="http://www.w3.org/1999/xlink">
    <!-- Generator: Sketch 59 (86127) - https://sketch.com -->
    <title>decision</title>
    <desc>Created with Sketch.</desc>
    <g id="decision" stroke="none" stroke-width="1" fill="none" fill-rule="evenodd">
        <path d="M125.742972,100 C131.394464,100 135.975904,104.58144 135.975904,110.232932 C135.975904,113.062099 134.827769,115.623105 132.972019,117.47543 L146.870878,140.247896 L146.870878,140.247896 C147.856402,139.930012 148.908234,139.759036 150,139.759036 C151.113931,139.759036 152.18629,139.937025 153.19019,140.266114 L167.22441,117.559548 L167.22441,117.559548 C165.394759,115.710311 164.26506,113.167806 164.26506,110.361446 C164.26506,104.709954 168.8465,100.128514 174.497992,100.128514 C180.149484,100.128514 184.730924,104.709954 184.730924,110.361446 C184.730924,116.012938 180.149484,120.594378 174.497992,120.594378 C173.389963,120.594378 172.323065,120.41827 171.323763,120.092518 L157.285925,142.807428 L157.285925,142.807428 C158.589961,144.12892 159.5367,145.804203 159.969786,147.676182 L186.659065,147.931639 L186.659065,147.931639 C187.773643,143.485052 191.795518,140.192771 196.586345,140.192771 C202.237838,140.192771 206.819277,144.774211 206.819277,150.425703 C206.819277,156.077195 202.237838,160.658635 196.586345,160.658635 C191.734539,160.658635 187.671386,157.282012 186.618658,152.750538 L159.923715,152.496249 L159.923715,152.496249 C159.466421,154.316476 158.52087,155.943045 157.234654,157.228864 L171.145058,180.019315 L171.145058,180.019315 C172.131906,179.704721 173.182578,179.534137 174.273092,179.534137 C179.924585,179.534137 184.506024,184.115576 184.506024,189.767068 C184.506024,195.41856 179.924585,200 174.273092,200 C168.6216,200 164.040161,195.41856 164.040161,189.767068 C164.040161,186.943033 165.184134,184.386187 167.033955,182.534656 L153.120403,159.737819 L153.120403,159.737819 C152.137169,160.054967 151.088429,160.2249 150,160.2249 C148.894056,160.2249 147.829089,160.049454 146.831414,159.724877 L132.797942,182.430278 L132.797942,182.430278 C134.624058,184.279824 135.751004,186.819551 135.751004,189.62249 C135.751004,195.273982 131.169564,199.855422 125.518072,199.855422 C119.86658,199.855422 115.285141,195.273982 115.285141,189.62249 C115.285141,183.970998 119.86658,179.389558 125.518072,179.389558 C126.629031,179.389558 127.69864,179.566598 128.700226,179.894005 L142.730687,157.191685 L142.730687,157.191685 C141.417591,155.868361 140.465025,154.187191 140.030214,152.307753 L113.340619,152.052141 L113.340619,152.052141 C112.226681,156.498619 108.204675,159.791165 103.413655,159.791165 C97.7621625,159.791165 93.1807229,155.209725 93.1807229,149.558233 C93.1807229,143.906741 97.7621625,139.325301 103.413655,139.325301 C108.265461,139.325301 112.328614,142.701924 113.381342,147.233397 L140.077329,147.487544 L140.077329,147.487544 C140.533001,145.670253 141.475985,144.046413 142.758622,142.761799 L128.856721,119.983601 L128.856721,119.983601 C127.875319,120.296711 126.828899,120.465863 125.742972,120.465863 C120.09148,120.465863 115.51004,115.884424 115.51004,110.232932 C115.51004,104.58144 120.09148,100 125.742972,100 Z M174.273092,184.353414 C171.283213,184.353414 168.859438,186.777189 168.859438,189.767068 C168.859438,192.756947 171.283213,195.180723 174.273092,195.180723 C177.262971,195.180723 179.686747,192.756947 179.686747,189.767068 C179.686747,186.777189 177.262971,184.353414 174.273092,184.353414 Z M125.518072,184.208835 C122.528193,184.208835 120.104418,186.632611 120.104418,189.62249 C120.104418,192.612369 122.528193,195.036145 125.518072,195.036145 C128.507951,195.036145 130.931727,192.612369 130.931727,189.62249 C130.931727,187.706962 129.936866,186.023796 128.435655,185.061503 L128.292129,184.975684 L128.292129,184.975684 C127.482052,184.487936 126.532656,184.208835 125.518072,184.208835 Z M196.586345,145.012048 C193.596466,145.012048 191.172691,147.435824 191.172691,150.425703 C191.172691,153.415582 193.596466,155.839357 196.586345,155.839357 C199.576224,155.839357 202,153.415582 202,150.425703 C202,147.435824 199.576224,145.012048 196.586345,145.012048 Z M150,144.578313 C147.010121,144.578313 144.586345,147.002089 144.586345,149.991968 C144.586345,152.981847 147.010121,155.405622 150,155.405622 C152.989879,155.405622 155.413655,152.981847 155.413655,149.991968 C155.413655,147.002089 152.989879,144.578313 150,144.578313 Z M103.413655,144.144578 C100.423776,144.144578 98,146.568354 98,149.558233 C98,152.548112 100.423776,154.971888 103.413655,154.971888 C106.403534,154.971888 108.827309,152.548112 108.827309,149.558233 C108.827309,146.568354 106.403534,144.144578 103.413655,144.144578 Z M174.497992,104.947791 C171.508113,104.947791 169.084337,107.371567 169.084337,110.361446 C169.084337,113.351325 171.508113,115.7751 174.497992,115.7751 C177.487871,115.7751 179.911647,113.351325 179.911647,110.361446 C179.911647,107.371567 177.487871,104.947791 174.497992,104.947791 Z M125.742972,104.819277 C122.753093,104.819277 120.329317,107.243053 120.329317,110.232932 C120.329317,113.222811 122.753093,115.646586 125.742972,115.646586 C126.759918,115.646586 127.711373,115.366184 128.524239,114.878477 L128.593558,114.833978 C130.132357,113.880969 131.156627,112.176566 131.156627,110.232932 C131.156627,107.243053 128.732851,104.819277 125.742972,104.819277 Z" id="icon_decision" fill="#2987EC" fill-rule="nonzero"></path>
    </g>
</svg>