<?xml version="1.0" encoding="UTF-8"?>
<svg width="300px" height="300px" viewBox="0 0 300 300" version="1.1" xmlns="http://www.w3.org/2000/svg" xmlns:xlink="http://www.w3.org/1999/xlink">
    <!-- Generator: Sketch 59 (86127) - https://sketch.com -->
    <title>ethics</title>
    <desc>Created with Sketch.</desc>
    <g id="ethics" stroke="none" stroke-width="1" fill="none" fill-rule="evenodd">
        <path d="M149.999344,105 C168.201356,105 184.610775,115.965499 191.574866,132.782594 C198.538957,149.599688 194.686028,168.955981 181.81294,181.824424 C168.939852,194.692868 149.582171,198.538813 132.767591,191.568654 C115.95301,184.598496 104.993437,168.185122 105,149.983111 C105,138.050036 109.741509,126.605946 118.180989,118.169509 C126.62047,109.733073 138.06627,104.995697 149.999344,105 M150,100 C122.385763,100 100,122.385763 100,150 C100,177.614237 122.385763,200 150,200 C177.614237,200 200,177.614237 200,150 C199.972987,122.39696 177.60304,100.027013 150,100 Z" id="ethics_icon_circle_inner" fill="#5CAA4B" fill-rule="nonzero"></path>
    </g>
</svg>