<?xml version="1.0" encoding="UTF-8"?>
<svg width="300px" height="300px" viewBox="0 0 300 300" version="1.1" xmlns="http://www.w3.org/2000/svg" xmlns:xlink="http://www.w3.org/1999/xlink">
    <!-- Generator: Sketch 59 (86127) - https://sketch.com -->
    <title>ethics</title>
    <desc>Created with Sketch.</desc>
    <g id="ethics" stroke="none" stroke-width="1" fill="none" fill-rule="evenodd">
        <path d="M150,125 C163.807119,125 175,136.192881 175,150 C175,163.807119 163.807119,175 150,175 C136.192881,175 125,163.807119 125,150 C125,136.192881 136.192881,125 150,125 M150.000438,120 C137.866748,120 126.92782,127.309159 122.284458,138.519226 C117.641095,149.729294 120.207731,162.63264 128.787545,171.212455 C137.36736,179.792269 150.270706,182.358905 161.480774,177.715542 C172.690841,173.07218 180,162.133252 180,149.999562 C179.982767,133.438405 166.561595,120.017233 150.000438,120 Z" id="ethics-icon-circle-outer" fill="#5CAA4B" fill-rule="nonzero"></path>
    </g>
</svg>